<?xml version="1.0" encoding="UTF-8" standalone="no"?>
<svg width="147px" height="147px" viewBox="0 0 147 147" version="1.1" xmlns="http://www.w3.org/2000/svg" xmlns:xlink="http://www.w3.org/1999/xlink">
    <!-- Generator: Sketch 39.1 (31720) - http://www.bohemiancoding.com/sketch -->
    <title>sad_slice</title>
    <desc>Created with Sketch.</desc>
    <defs>
        <circle id="path-1" cx="73.5" cy="73.5" r="73.5"></circle>
        <mask id="mask-2" maskContentUnits="userSpaceOnUse" maskUnits="objectBoundingBox" x="0" y="0" width="147" height="147" fill="white">
            <use xlink:href="#path-1"></use>
        </mask>
    </defs>
    <g id="Page-1" stroke="none" stroke-width="1" fill="none" fill-rule="evenodd">
        <g id="Artboard" transform="translate(-231.000000, 0.000000)">
            <g id="sad" transform="translate(231.000000, 0.000000)">
                <use id="Oval" stroke="#666666" mask="url(#mask-2)" stroke-width="14" fill="#FFFFFF" xlink:href="#path-1"></use>
                <path d="M41.4378175,50.9812483 C41.4378175,49.1082781 39.9140506,47.5845112 38.0453975,47.5845112 C36.1722674,47.5845112 34.6441834,49.1082781 34.6441834,50.9812483 C34.6441834,54.338812 36.0150939,57.3951399 38.2244761,59.5955681 C40.4292213,61.8004733 43.4812322,63.1584326 46.856224,63.1584326 C50.2224219,63.1584326 53.2787498,61.7961562 55.487972,59.5955681 C57.6928771,57.3951399 59.0594706,54.338812 59.0594706,50.9812483 C59.0594706,49.1082781 57.5400208,47.5845112 55.6670506,47.5845112 C53.7896034,47.5845112 52.2658365,49.1082781 52.2658365,50.9812483 C52.2658365,52.4658418 51.6632051,53.8279584 50.685308,54.8060153 C49.7072511,55.7795952 48.3449747,56.3908608 46.856224,56.3908608 C45.3586793,56.3908608 44.0051969,55.7795952 43.02714,54.8060153 C42.0490831,53.8279584 41.4378175,52.4658418 41.4378175,50.9812483" id="Fill-1" fill="#666666"></path>
                <path d="M96.1845411,50.9812483 C96.1845411,49.1082781 94.6562972,47.5845112 92.7919612,47.5845112 C90.914514,47.5845112 89.3995411,49.1082781 89.3995411,50.9812483 C89.3995411,54.338812 90.7661346,57.3951399 92.9710397,59.5955681 C95.180262,61.8004733 98.2321129,63.1584326 101.611582,63.1584326 C104.973463,63.1584326 108.025313,61.7961562 110.234536,59.5955681 C112.452552,57.3951399 113.814828,54.338812 113.814828,50.9812483 C113.814828,49.1082781 112.295379,47.5845112 110.422408,47.5845112 C108.549278,47.5845112 107.021194,49.1082781 107.021194,50.9812483 C107.021194,52.4658418 106.42304,53.8279584 105.436189,54.8060153 C104.453815,55.7795952 103.100332,56.3908608 101.615899,56.3908608 C100.114037,56.3908608 98.7603948,55.7795952 97.7868148,54.8060153 C96.7870126,53.8279584 96.1845411,52.4658418 96.1845411,50.9812483" id="Fill-3" fill="#666666"></path>
                <path d="M44.4984625,101.374923 C44.4984625,103.247893 46.0267064,104.758709 47.8996766,104.758709 C49.7683297,104.758709 51.2920967,103.243576 51.2920967,101.374923 C51.2920967,95.0396982 53.8549991,89.3157388 58.002907,85.1679909 L58.0115411,85.176625 C62.154972,81.0419882 67.9008365,78.4702917 74.2317444,78.4702917 C80.5624923,78.4702917 86.2995628,81.0419882 90.4429937,85.176625 L90.6132782,85.3382754 C94.6737254,89.4685952 97.1624381,95.126999 97.1624381,101.374923 C97.1624381,103.247893 98.690682,104.758709 100.554858,104.758709 C102.432305,104.758709 103.947438,103.243576 103.947438,101.374923 C103.947438,93.2845681 100.707715,85.9493811 95.4378473,80.5922131 C95.3767687,80.5180234 95.3112132,80.4569448 95.2413406,80.3825952 C89.8710614,75.016793 82.4225113,71.6985627 74.2272674,71.6985627 C66.0190723,71.6985627 58.5791563,75.016793 53.2088771,80.3825952 L53.2088771,80.3957063 L53.2088771,80.4045004 C47.8254869,85.7661453 44.4984625,93.1884733 44.4984625,101.374923" id="Fill-5" fill="#666666"></path>
            </g>
        </g>
    </g>
</svg>