<?xml version="1.0" encoding="UTF-8"?>
<svg width="32px" height="32px" viewBox="0 0 32 32" version="1.1" xmlns="http://www.w3.org/2000/svg" xmlns:xlink="http://www.w3.org/1999/xlink">
    <!-- Generator: Sketch 39.1 (31720) - http://www.bohemiancoding.com/sketch -->
    <title>help6_slice</title>
    <desc>Created with Sketch.</desc>
    <defs></defs>
    <g id="个人中心&amp;余额" stroke="none" stroke-width="1" fill="none" fill-rule="evenodd">
        <g id="Artboard" transform="translate(-38.000000, -692.000000)">
            <g id="help6" transform="translate(38.000000, 692.000000)">
                <path d="M29.4136739,7.27511333 C29.1726522,6.90540278 28.6759331,6.80154516 28.3067805,7.04143369 C27.936499,7.28301554 27.8315106,7.778597 28.0730967,8.14830755 C29.5954279,10.4845395 30.4003387,13.1989487 30.4003387,15.9997178 C30.4003387,23.9397456 23.9401679,30.4003669 15.9994355,30.4003669 C8.05926762,30.4003669 1.59966133,23.9397456 1.59966133,15.9997178 C1.59966133,8.05968991 8.05926762,1.59963311 15.9994355,1.59963311 C18.5597968,1.59963311 21.0727439,2.27922318 23.2667749,3.56502566 C23.6472165,3.78685199 24.1377267,3.66098107 24.3618147,3.27941721 C24.5847739,2.89785335 24.4572074,2.40791632 24.0762012,2.18439666 C21.636633,0.755225513 18.8431525,0 15.9994355,0 C7.17702674,0 0,7.17746459 0,15.9997178 C0,24.8225354 7.17702674,32 15.9994355,32 C24.8224088,32 32,24.8225354 32,15.9997178 C32,12.8879403 31.1059056,9.87098936 29.4136739,7.27511333" id="Fill-1" fill="#070101"></path>
                <path d="M15.7114727,21.2549636 C15.2974727,21.2549636 14.9549273,20.9271455 14.9391091,20.5109636 C14.8474727,18.0160545 15.7000182,17.0396909 16.6878364,15.9100545 C17.2251091,15.2958727 17.8338364,14.6004182 18.4038364,13.4920545 C18.9782,12.3749636 19.0316545,11.3533273 18.5587455,10.5378727 C18.0716545,9.69841818 17.0571091,9.14587273 15.9100182,9.09514545 C13.8198364,9.00241818 12.4382,11.1275091 12.4245636,11.1487818 C12.1949273,11.5087818 11.7171091,11.6140545 11.3565636,11.3827818 C10.9965636,11.1526 10.8918364,10.6753273 11.1220182,10.3153273 C11.1978364,10.1975091 13.0005636,7.41241818 15.9787455,7.55041818 C17.6467455,7.6246 19.1478364,8.47169091 19.8962,9.76169091 C20.6358364,11.0375091 20.5943818,12.6133273 19.7789273,14.1989636 C19.1222,15.4753273 18.4180182,16.2809636 17.8518364,16.9278727 C16.9556545,17.9527818 16.4151091,18.5713273 16.4843818,20.4531455 C16.5002,20.8802364 16.1669273,21.2391455 15.7403818,21.2544182 C15.7311091,21.2549636 15.7212909,21.2549636 15.7114727,21.2549636" id="Fill-1" fill="#231815"></path>
                <path d="M17.0913091,23.6042909 C17.0913091,24.2697455 16.5518545,24.8086545 15.8869455,24.8086545 C15.2214909,24.8086545 14.6820364,24.2697455 14.6820364,23.6042909 C14.6820364,22.9388364 15.2214909,22.3999273 15.8869455,22.3999273 C16.5518545,22.3999273 17.0913091,22.9388364 17.0913091,23.6042909" id="Fill-4" fill="#FF6468"></path>
            </g>
        </g>
    </g>
</svg>