<?xml version="1.0" encoding="UTF-8"?>
<svg width="220px" height="42px" viewBox="0 0 220 42" version="1.1" xmlns="http://www.w3.org/2000/svg" xmlns:xlink="http://www.w3.org/1999/xlink">
    <!-- Generator: Sketch 45.1 (43504) - http://www.bohemiancoding.com/sketch -->
    <title>liulanq_slice</title>
    <desc>Created with Sketch.</desc>
    <defs></defs>
    <g id="Page-8" stroke="none" stroke-width="1" fill="none" fill-rule="evenodd">
        <g id="Artboard" transform="translate(-437.000000, -346.000000)">
            <g id="liulanq" transform="translate(437.000000, 346.000000)">
                <rect id="Rectangle-5" stroke="#FFFFFF" x="0.5" y="0.5" width="218.679688" height="40.1005744" rx="4"></rect>
                <text id="浏览器打开" font-family="SourceHanSansCN-Regular, Source Han Sans CN" font-size="32" font-weight="normal" letter-spacing="0.491428584" fill="#FFFFFF">
                    <tspan x="44" y="32">浏览器打开</tspan>
                </text>
                <path d="M27.4560454,8.29447333 C27.4406911,8.28892814 27.4367254,8.29759879 27.4174055,8.28892814 C27.3756812,8.26846138 27.3496162,8.22238594 27.3233818,8.17631051 C27.368021,8.21371529 27.4124908,8.25112008 27.4560454,8.29447333 M27.1559084,31.4639238 C27.1684833,31.4531792 27.1713982,31.4444344 27.1868881,31.4338592 C27.1520444,31.4338592 27.117099,31.4271142 27.1249287,31.3826106 C27.1917689,31.3671207 27.2082078,31.4057945 27.295317,31.3922705 C27.3069768,31.3864406 27.374766,31.3622399 27.3756812,31.3263455 C27.3853412,31.2993314 27.3525312,31.3137706 27.3233818,31.2935016 C27.304977,31.3022464 27.2526776,31.3321753 27.2207827,31.3390559 C27.1637041,31.3505801 27.1017448,31.2528619 27.1114047,31.1869368 C27.1132689,31.157923 27.1384188,31.1249774 27.1917689,31.1240284 C27.3341264,31.0978278 27.3447015,31.157923 27.4900756,31.1384675 C27.5345792,31.1288075 27.6439233,31.0861681 27.6595487,31.0610183 C27.6595487,31.0407493 27.6633788,31.0349194 27.6692087,31.0165146 C27.7301174,30.9458104 27.6497532,30.8945956 27.7534369,30.8238914 C27.8288863,30.7695922 28.038084,30.7860311 28.1523428,30.7435272 C28.3257817,30.6785173 28.4506495,30.6737382 28.5911428,30.5758844 C28.6627621,30.513925 28.7208914,30.4829453 28.7983407,30.4015304 C28.8418953,30.3657715 28.8477251,30.336656 28.8603,30.2699175 C28.8806707,30.2079581 28.7693269,30.240802 28.757701,30.1875536 C28.744177,30.1139344 28.753837,30.0849545 28.7102824,30.0501447 C28.6869968,30.0374342 28.5969387,30.0374342 28.6046328,29.9871007 C28.6076833,29.9696449 28.6454081,29.9550703 28.664728,29.9522909 C28.7731908,29.9328354 28.8458609,29.9794405 28.9368341,29.9619509 C28.9813039,29.9541551 29.1141031,29.97639 29.226396,29.9581208 C29.5314477,29.8950768 29.6369617,29.6461885 29.8016557,29.4593612 C29.9450639,29.3062931 30.1125373,29.1707145 30.2636057,29.0080203 C30.3361741,28.9237921 30.2781804,29.045745 30.3361741,28.9644318 L30.3361741,28.9673467 C30.4263338,28.8443431 30.5114771,28.7455741 30.6461066,28.6584649 C30.6751204,28.5170565 30.6945759,28.3640222 30.7197258,28.2081747 C30.7332497,28.1025251 30.698406,28.2245797 30.8019541,28.1345556 C30.8609986,28.0802564 30.9453623,28.0676815 31.0092876,27.9776573 C31.1565259,27.7917791 31.2862746,27.8391638 31.4683227,27.6716905 C31.4858123,27.6522349 31.4954723,27.619391 31.542857,27.5951564 C31.6339657,27.5361119 31.7249389,27.5224524 31.8421127,27.4934725 C31.9447117,27.4750677 32.0804258,27.3637238 32.1307255,27.2833596 C32.1471644,27.2620399 32.1529604,27.1933355 32.1858043,27.1496114 C32.2943688,27.0131177 32.3339577,26.9502432 32.4502163,26.7933449 C32.4657061,26.7709745 32.5016006,26.6411919 32.5190563,26.5860114 C32.5238354,26.5385928 32.5859304,26.4678886 32.6187743,26.4320281 C32.629485,26.4155892 32.6604647,26.3826436 32.6604647,26.3525791 C32.6788695,26.2770957 32.7736728,25.9468942 32.7911624,25.8374146 C32.8153632,25.6883121 32.7262881,25.6476724 32.8250571,25.5284989 C32.8909821,25.4558288 32.9548057,25.4248491 33.0274758,25.3231652 C33.0759451,25.2573418 33.0972649,25.2398861 33.1388197,25.1759269 C33.3345273,24.8767051 33.5960244,24.5881939 33.6676438,24.1038735 C33.6869637,23.9615499 33.6734736,23.8337672 33.5717897,23.8133965 C33.4961708,23.7998725 33.4477354,23.8434271 33.3693371,23.832852 C33.2773132,23.8095325 33.1320747,23.6537189 33.0826902,23.5567802 C33.011986,23.5278003 32.9316218,23.4959055 32.8133973,23.4842457 C32.744659,23.5035656 32.6604647,23.5287155 32.5781008,23.5462051 C32.4570969,23.565525 32.4493011,23.4580113 32.3060285,23.4677051 C32.2478992,23.476416 32.2218343,23.5248854 32.1587902,23.5596952 C32.1433004,23.5626101 32.1278105,23.5616949 32.1132697,23.5646099 C32.1201504,23.5123105 32.1298103,23.453266 32.1152356,23.3913066 C32.1055757,23.3428373 32.0522255,23.3592423 31.9980619,23.3253477 C31.9147828,23.2817931 31.6842654,23.1666191 31.5652613,23.1742793 C31.4470029,23.1878032 31.3628087,23.3408375 31.2853594,23.462926 C31.2698696,23.4939057 31.2281453,23.5538992 31.2019447,23.5548143 C31.1836755,23.5577293 31.170965,23.496685 31.1729309,23.479331 C31.1215805,23.4773651 31.0692811,23.4919059 31.0054575,23.4928549 C30.9985769,23.4193714 30.9648179,23.370902 30.8959779,23.3368718 C30.8640491,23.3272119 30.797175,23.3359567 30.8019541,23.2643373 C30.8252737,23.0425647 31.0605363,22.7530029 31.1855058,22.5990195 C31.1835399,22.5399412 31.1022267,22.5312303 31.0663662,22.4605261 C31.0373524,22.3781621 30.9559375,22.1505596 30.9579373,22.0605355 C30.8378486,22.0364364 30.6964402,21.8048683 30.5772666,21.8030041 C30.5646917,21.805919 30.5453718,21.8048683 30.5327969,21.8048683 C30.536627,21.8048683 30.5317122,21.7933441 30.533712,21.789514 C30.4630078,21.7952083 30.3439699,21.7381297 30.2916704,21.71681 C30.2354053,21.719725 30.1580917,21.7188098 30.0959967,21.7245041 C29.8887988,21.6945751 29.5827981,21.7313847 29.5217877,21.5163572 C29.4888082,21.5163572 29.418104,21.4979524 29.4065799,21.4737177 C29.3078109,21.2820097 29.2496816,21.311159 29.0986132,21.1657511 C29.0288581,21.1726656 28.949409,21.169615 28.8768406,21.1715809 C28.8389803,21.0660669 28.8787048,20.9585532 28.7693269,20.9237434 C28.6511024,20.8907639 28.4826799,20.868529 28.4245506,20.7571851 C28.4225847,20.7416953 28.4265504,20.71058 28.4254997,20.6952258 C28.4458704,20.7048857 28.5224044,20.6970561 28.5475543,20.676821 C28.5475543,20.676821 28.3984857,20.6555012 28.3199857,20.6573316 C28.2997167,20.6670254 28.1253288,20.683566 28.1156688,20.699971 C28.0507945,20.7949099 27.9830052,20.795825 27.8580357,20.8142298 C27.806787,20.8162296 27.6925282,20.8036547 27.6934434,20.7300355 C27.5452899,20.7338656 27.3951367,20.7338656 27.2411534,20.7358654 C27.2014628,20.7318997 27.1443842,20.6757363 27.1414693,20.594457 C27.0204654,20.5731373 26.8238427,20.5285319 26.7918122,20.4007492 C26.7531384,20.3996984 26.6795193,20.3978342 26.6417946,20.3996984 C26.634914,20.4936883 26.7695435,20.4568787 26.8025229,20.5498517 C26.7511387,20.5536818 26.6698593,20.5536818 26.59824,20.5518176 C26.5207568,20.6030662 26.3879916,20.5866612 26.3812126,20.7056653 C26.3763318,20.8016549 26.4752363,20.8538187 26.4819814,20.9525877 C26.4790664,20.9759072 26.4257163,21.0785063 26.3996174,21.0823703 C26.2959676,21.0785063 26.251464,20.9274379 26.2602088,20.8432436 C26.2552941,20.790029 26.3125082,20.6359101 26.340573,20.5148724 C26.3666718,20.5139572 26.4258519,20.4820624 26.4276822,20.4170525 C26.4276822,20.4170525 26.3832124,20.3251641 26.3502329,20.3211985 C26.2505488,20.3289942 26.2128241,20.4394229 26.0994804,20.4760969 C25.8767588,20.5400561 25.7479592,20.5739508 25.5338468,20.640791 C25.4225029,20.6776005 25.3441385,20.6960053 25.297669,20.8277538 C25.2850602,20.8751385 25.2636388,20.9913971 25.2172709,21.0291218 C25.1746653,21.0455607 25.0816924,21.0862004 25.0758964,21.1665645 C25.0631859,21.1694795 25.0254273,21.1946293 25.0225123,21.206289 C25.0265119,21.2179488 25.0254273,21.2430986 25.0225123,21.2547245 C24.9789577,21.2722141 24.9838725,21.2673333 24.9169983,21.2567243 C24.8995087,21.2673333 24.868529,21.2992281 24.8512089,21.311803 C24.8646989,21.295398 24.8967293,21.2644183 24.9102533,21.2489285 C24.7708447,21.1490749 24.7591849,20.9176423 24.502467,20.9090331 C24.2884901,20.911948 24.1790105,21.0688463 23.944663,21.0726764 C23.7897306,21.0688463 23.7964756,20.9283869 23.6967915,20.8799176 C23.554468,20.8170092 23.3753348,20.7510841 23.3684542,20.5652059 C23.3675052,20.3967835 23.373335,20.2426646 23.3695049,20.0704121 C23.4236347,19.9900479 23.4314643,19.6733364 23.4314643,19.5986666 C23.4372942,19.5696866 23.4314643,19.5067782 23.4314643,19.4767137 C23.2736509,19.4437681 23.2213515,19.3091047 23.003409,19.3052746 C22.6905615,19.3081895 22.4532991,19.3546591 22.1560431,19.3546591 C22.1163186,19.356625 22.0523595,19.3227303 22.0485294,19.2655501 C22.0474786,19.2558901 22.0456144,19.2336552 22.0485294,19.2249104 C22.0902537,19.1919309 22.2072918,19.1445463 22.2092577,19.0621823 C22.2043769,18.9286035 22.2063428,18.798821 22.2092577,18.6709365 C22.2267474,18.6680216 22.2635569,18.6700214 22.280911,18.6709365 C22.277996,18.6845622 22.2828769,18.7146267 22.280911,18.7281507 C22.3371761,18.6477526 22.3874757,18.5934873 22.3874757,18.4598746 C22.3903906,18.3019257 22.5365782,18.1606528 22.5394931,18.0453433 C22.5404083,18.0279892 22.5404083,17.9902645 22.5394931,17.9718597 C22.5006838,17.9727749 22.3612752,17.9602 22.3351763,17.9563699 C22.3098909,17.9417952 22.2364073,17.9263053 22.1569583,17.93122 C21.9128153,17.9321352 21.6010185,17.9243394 21.5933244,18.1635678 C21.5894943,18.2856562 21.4479504,18.39317 21.4054804,18.489024 C21.3996505,18.5121741 21.3511812,18.614807 21.280477,18.6187727 C21.2553271,18.6196878 21.2088576,18.5703034 21.1120545,18.5703034 C20.9289557,18.5703034 20.7944279,18.6807321 20.6249547,18.6845622 C20.5725197,18.6825963 20.5531998,18.613858 20.4748015,18.587793 C20.2375391,18.5180039 20.243369,18.3892043 20.0874197,18.241017 C20.0283753,18.1848875 19.9122523,18.0706287 19.8773069,18.0066695 C19.8375824,17.93122 19.8869669,17.888445 19.8521232,17.8139107 C19.8366334,17.7916758 19.7708439,17.7200226 19.7834188,17.6531824 C19.7881979,17.5040799 19.7881979,17.3587058 19.7872489,17.2039429 C19.8143985,17.0809393 19.8773069,17.0324699 19.8773069,16.8823167 C19.8792728,16.8465918 19.8559872,16.7913774 19.8434123,16.755483 C19.8404973,16.7516529 19.8355826,16.7399931 19.8384976,16.736163 C19.8423276,16.7321974 19.8579531,16.7438571 19.8618171,16.739078 C19.8646981,16.7215883 19.8200928,16.6780337 19.8191776,16.659629 C19.8269734,16.4223665 19.9315722,16.207339 20.1300592,16.1395497 C20.2171684,16.1047399 20.2956684,16.1647334 20.3673216,16.0969441 C20.4757506,16.0039712 20.5939751,15.8064332 20.8515065,15.7996882 C20.9522413,15.801688 21.0007107,15.8780865 21.0975137,15.8762223 C21.1362892,15.8742225 21.1904528,15.8132122 21.2301773,15.8122631 C21.4093105,15.8133138 21.6097633,16.0737602 21.8654306,15.9671616 C21.7579168,15.9013721 21.8355016,15.827753 21.8489917,15.7134941 C21.8063861,15.722239 21.8141819,15.738644 21.7250729,15.7134941 C21.8770903,15.6670246 22.0591384,15.6825145 22.201462,15.649535 C22.2025127,15.6670246 22.2441014,15.7134941 22.2634213,15.712579 C22.3157208,15.7145449 22.3583602,15.6457049 22.4851939,15.6486198 C22.6983573,15.6457049 22.7902456,15.8355826 22.9540245,15.8315831 C23.0120182,15.8315831 23.0682833,15.728984 23.1486475,15.728984 C23.541893,15.7358646 23.4371586,16.2064238 23.5756521,16.4708358 C23.6472715,16.6016352 23.7296354,16.6451898 23.8429791,16.7671427 C23.8923636,16.8505574 23.8874488,16.9628165 24.020248,16.9695954 C24.1713164,16.9686463 24.2129051,16.8204929 24.2129051,16.649969 C24.2139558,16.4999513 24.1345068,16.4272812 24.1044423,16.3294274 C24.1063065,16.3197675 24.1033915,16.3004475 24.1044423,16.2897029 C24.0966465,16.0331205 23.8613839,15.9595014 23.8535542,15.6932252 C23.8575199,15.1131863 24.2816095,15.0849859 24.6952258,14.8884988 C24.6883451,14.8846687 24.6777361,14.8768729 24.6709911,14.8730089 C24.7116308,14.8400633 24.7107156,14.8072194 24.8171786,14.775189 C24.8703932,14.7684101 24.9305223,14.7026206 25.0322062,14.68608 C25.0680667,14.682216 25.1125704,14.6270017 25.1318903,14.6038516 C25.1067405,14.5883618 25.056407,14.5582972 25.0292913,14.5475865 C25.0312572,14.5320967 25.0274271,14.5030829 25.0283422,14.4866779 C25.0864715,14.4856271 25.145516,14.4934229 25.1610058,14.412008 C25.1289754,14.402348 25.0757608,14.398484 25.040002,14.3423545 C25.0728459,14.3432697 25.152261,14.319035 25.15321,14.2523304 C25.152261,14.2319258 25.1542608,14.1951162 25.1513458,14.1767114 C25.1378558,14.1690513 25.1057915,14.1767114 25.0912507,14.1748811 C25.0525769,14.1389867 25.0903016,14.1351566 25.0883357,14.0615375 C25.0844717,13.9840882 25.0438321,13.8465099 25.0389512,13.7962103 C25.0389512,13.7962103 25.0322062,13.7273364 25.0458318,13.6974413 C25.060271,13.7787207 25.1475157,13.8862344 25.145516,13.9492446 C25.1475157,13.9705643 25.1475157,14.0101532 25.1475157,14.0325237 C25.14938,14.0431327 25.1706658,14.0770273 25.1823255,14.0789932 C25.2016794,14.0731972 25.3692883,13.8097003 25.3720677,13.7739415 C25.3672886,13.7265568 25.3101083,13.6964923 25.2917035,13.6296521 C25.3024142,13.6199582 25.3237339,13.6044683 25.3333939,13.5928425 C25.3450537,13.6064681 25.3751182,13.6538528 25.3944382,13.6549375 C25.439857,13.6529377 25.608415,13.3972704 25.6229558,13.3420561 C25.6229558,13.3420561 25.5435068,13.2810118 25.5444558,13.2509812 C25.5367617,13.2345423 25.5754355,13.2112567 25.5928912,13.2006477 C25.6123806,13.2035626 25.6501054,13.2055624 25.6694253,13.2112567 C25.793378,13.2015967 25.8698782,13.2190525 25.988001,13.1851578 C25.9454971,13.1522122 25.8553374,13.1841071 25.7778881,13.1774976 C25.7556194,13.1754979 25.7149797,13.170617 25.69366,13.1744471 C25.862218,13.0834739 26.1421199,13.1357733 26.3075935,13.0370044 C26.3328789,13.061239 26.4781513,13.0505283 26.5807503,13.0273444 C26.5778354,13.0138543 26.5787506,12.9905348 26.5787506,12.9769092 C26.5787506,12.9769092 26.5023521,13.0215145 26.4887264,13.0235143 C26.4500865,13.0235143 26.4006681,12.9189155 26.4006681,12.8888509 C26.3813482,12.8839701 26.3686377,12.8403816 26.3648076,12.8230615 C26.3618927,12.5353299 26.6534543,12.6390136 26.7870331,12.5295339 C26.8673973,12.5005201 26.8732271,12.4850303 26.9719961,12.4898094 C27.0862549,12.4985542 27.169534,12.4559148 27.2238332,12.3853461 C27.2103093,12.3756862 27.1957685,12.3465368 27.1850239,12.3330467 C27.1850239,12.3330467 27.1841087,12.3155571 27.1793296,12.3126422 C27.1802447,12.3058971 27.1793296,12.2971523 27.1782788,12.2913224 C27.1917689,12.2942374 27.2393231,12.2951864 27.258643,12.2962372 C27.2974524,12.2971523 27.5075652,12.3359617 27.5782694,12.3029822 C27.6498888,12.2612918 27.6391781,12.1770636 27.7583177,12.1770636 C27.7679777,12.2700027 27.7574026,12.2787475 27.885287,12.2904073 C27.700324,12.2884075 27.4281162,12.3853461 27.4348612,12.5382448 C27.4397759,12.5916289 27.5598646,12.7193778 27.6063342,12.7252076 C27.6576845,12.7222927 27.8058719,12.5557345 27.9598213,12.5180097 C27.9926652,12.5180097 28.5059994,12.3746016 28.5147443,12.318472 C28.5039997,12.2468527 28.3122916,12.2197031 28.2599922,12.215873 C28.0343895,12.195604 27.6712085,11.9795257 27.6451096,11.8091374 C27.6025041,11.8003926 27.532715,11.7819878 27.4745857,11.7781577 C27.5172252,11.7278241 27.7912972,11.7200284 27.7874671,11.5806198 C27.7708926,11.462497 27.5414598,11.459582 27.3710376,11.4479223 C27.0184656,11.4275516 26.8801077,11.6154295 26.6350495,11.6348851 C26.7328695,11.4566671 26.8974618,11.5235412 27.066935,11.3927418 C27.1753639,11.2997688 27.0824248,11.2416734 27.2498982,11.2068297 C27.5432902,11.1505646 27.7098823,11.2106598 28.0121207,11.2367587 C28.4023158,11.2717041 28.7015376,11.4324324 28.9069052,11.2096091 C29.001844,11.1051458 29.5518184,11.1825951 29.5401925,11.027561 C29.5257534,10.912387 29.4676241,10.8580878 29.3881751,10.7816893 C29.3369264,10.7718938 29.4085796,10.7419648 29.321301,10.7022403 C29.3223856,10.6838355 29.31259,10.6634649 29.3136408,10.6450601 C29.1547427,10.6856997 28.8227109,10.7195944 28.6395782,10.7022403 C28.6211734,10.7051553 28.5699247,10.6838355 28.5641287,10.6741756 C28.7055033,10.6392302 29.0956983,10.6567198 29.1374226,10.5676108 C29.1374226,10.5444269 29.0792933,10.5278863 29.0685487,10.5067022 C28.8894155,10.4979574 28.5214893,10.4039675 28.4962039,10.2403242 C28.4923399,10.23846 28.4943397,10.2306304 28.4943397,10.2306304 C28.3306964,10.2054806 28.2260976,10.1309463 28.1244137,10.0737321 C28.1572576,10.0602421 28.2290125,10.0593269 28.2250468,10.0021128 C28.2221319,9.957643 28.1505125,9.90917367 28.1572576,9.868534 C28.083774,9.84338419 27.8339366,9.73004053 27.8880664,9.64862562 C27.9500258,9.54890761 27.6431437,9.49660819 27.5965386,9.37268941 C27.5771848,9.37068962 27.4881097,9.32038999 27.4620108,9.30107004 C27.4144905,9.31852578 27.2798272,9.34950548 27.3040618,9.40749919 C27.3496162,9.50735279 27.2198337,9.51409782 27.0861193,9.55673727 C26.9960952,9.58663233 26.9273908,9.65550623 26.845942,9.64676141 C26.7094483,9.63418651 26.5970198,9.48111834 26.5040807,9.46762827 C26.3752472,9.45305358 26.4208016,9.24677084 26.3907709,9.14613767 C26.3384715,9.02208331 25.9511914,9.07055264 25.9240418,8.9116546 C25.7051842,8.87684481 25.7294188,8.79739578 25.5056464,8.78390572 C25.4591769,8.77807584 25.3923028,8.77607606 25.3342074,8.77316112 C25.1066049,8.7587559 24.9671963,8.6773071 24.7395938,8.66764713 C24.6205559,8.66090209 24.5062971,8.68513676 24.5081613,8.76550093 C24.5139572,8.81105532 24.7977231,8.88175953 24.5431066,8.9659538 C24.4394229,8.99693349 24.6921752,9.11410724 24.7125798,9.17711737 C24.7473896,9.32330492 24.5265661,9.34076066 24.4190523,9.35811471 C24.5314469,9.4579683 24.7425088,9.49077831 24.8414133,9.5798873 C24.9197777,9.66025148 24.8753079,9.78525489 24.8800532,9.93249318 C24.8742233,10.0196024 24.4064774,10.2171403 24.2389701,10.2374093 C24.5334467,10.337229 24.4277632,10.5947604 24.5431066,10.6925803 C24.5168722,10.7197299 24.4287122,10.8272437 24.4210182,10.8775434 C24.3184191,10.8833732 24.2322251,10.9076079 24.1498611,10.8649685 C23.9386975,10.7545397 23.6336458,10.5619165 23.6250366,10.4252873 C23.6192067,10.2790997 23.6269008,10.159011 23.3905535,10.0757319 C23.2152505,10.0389223 23.0419472,10.0146877 22.8676949,9.98862269 C22.5568133,9.8723641 22.2226461,9.79108477 21.854686,9.72221087 C21.8033356,9.70963596 21.6048486,9.6398808 21.4886239,9.63893175 C21.3636205,9.64384648 21.3065758,9.7125509 21.1844874,9.71163574 C21.1795726,9.6070369 21.0663985,9.37455361 20.8861807,9.37068962 C20.8029016,9.37560434 20.7651768,9.41041413 20.6828129,9.42102315 C20.7128774,9.37268941 20.6828129,9.34845474 20.6915577,9.2274509 C20.6992518,9.04923291 20.8136462,8.89233465 21.0053542,8.7897356 C21.0720928,8.74035112 21.2145519,8.59311283 21.2754606,8.57762298 C21.4120898,8.55152411 21.5378728,8.63758259 21.5437027,8.53789847 C21.5418385,8.4701092 21.2426167,8.4808199 21.1321879,8.45261957 C21.1903172,8.46136438 20.9530548,8.38008505 21.6065772,8.4701092 C21.7771011,8.48268411 21.6743665,8.38391515 21.7703561,8.38100021 C21.8177747,8.37808527 21.8835642,8.37611938 21.9446084,8.379136 C22.1412312,8.37611938 22.2400002,8.27640137 22.3669695,8.22901667 C22.3669695,8.20769694 22.3678846,8.19125805 22.3678846,8.16997222 C22.0967275,8.13699274 21.8361795,8.16319329 21.7151418,8.05079868 C21.7539511,8.04788374 21.8177747,8.04510439 21.8565502,8.04893448 C21.9582341,8.07116936 22.0560879,8.13024771 22.2091221,8.13316264 C22.3369049,8.12824792 22.617722,8.10601304 22.6255516,8.06150939 C22.6225011,7.98697509 22.6060622,7.95691055 22.5905724,7.94433564 C22.7456403,7.95202972 22.8085149,8.01886994 22.9140288,8.02273393 C23.0011719,8.01703963 23.0845866,8.0285638 23.176475,8.02761475 C23.1407162,8.00829481 23.165866,7.93850576 23.2704648,8.01015902 C23.3265943,8.04988353 23.7101799,7.89298527 23.7187891,7.84265174 C23.7120102,7.80584216 23.5407067,7.77103238 23.535792,7.74588256 C23.5368427,7.72642704 23.4960675,7.69741323 23.5348769,7.66443375 C23.6230368,7.66206113 23.7092309,7.65053695 23.7983398,7.65053695 C24.1092214,7.65053695 24.4142731,7.67372088 24.7184097,7.69700649 C24.7260699,7.69900628 24.7570496,7.73185018 24.782335,7.73768006 C24.882053,7.73768006 24.9246924,7.7095814 25.0214616,7.71741106 C25.1783599,7.73568027 25.6674594,7.9168132 25.6838644,7.99914326 C25.6887792,8.04761259 25.5386259,8.09408213 25.4708367,8.12123173 C25.4204014,8.12797676 25.2838739,8.09991201 25.2848229,8.15407563 C25.2858736,8.18214039 25.3972175,8.21800091 25.4281972,8.23152487 C25.3342074,8.24515051 25.1550404,8.25481048 25.0872511,8.25189555 C24.9700773,8.24318463 24.8683934,8.23443981 24.7561344,8.23060972 C24.6486206,8.21894996 24.4539976,8.26541951 24.4510827,8.30131392 C24.4578277,8.34974935 24.7019708,8.40496371 24.7909442,8.41170875 C24.8838833,8.42136872 24.9265227,8.37584822 25.0205464,8.37689896 C25.0775911,8.38259325 25.073761,8.40204877 25.15321,8.40879381 C25.2102547,8.41462368 25.2664181,8.38947387 25.3032277,8.37106908 C25.5307963,8.44177329 25.6567148,8.51047771 25.9143818,8.5831817 C25.7999874,8.68089993 26.2474983,8.72062444 26.4381556,8.77966889 C26.6367443,8.84650911 26.7684927,8.84745816 26.9959596,8.91429838 C27.0143644,8.92304319 27.0434799,8.96080181 27.0764594,8.96368286 C27.1016092,8.96568264 27.1461128,8.95602267 27.1451638,8.93073727 C27.1209291,8.83684914 26.7094483,8.72550527 26.5718699,8.63839606 C26.6019345,8.65097097 26.6522341,8.64805603 26.6852136,8.65097097 C26.7714077,8.70523627 27.2507117,8.84176386 27.391171,8.86199896 C27.4183206,8.82427423 27.4850592,8.77980447 27.4821442,8.74496079 C27.4733994,8.70710048 27.3436508,8.67717152 27.3407358,8.65297075 C27.3359567,8.63070197 27.3330417,8.61124645 27.331991,8.58806253 C27.295317,8.58992673 27.242882,8.57735182 27.2071232,8.57257268 C27.1848883,8.51539243 27.1411981,8.54345719 26.9959596,8.50956255 C26.9485749,8.48824283 26.8390613,8.41170875 26.8187924,8.36920487 C26.7907276,8.3652392 26.7499524,8.36232426 26.7218876,8.35757901 C26.7218876,8.34008938 26.7209724,8.32659932 26.7160577,8.31016042 C26.7413431,8.32076944 26.7819828,8.32551469 26.8264864,8.32273533 C26.8226563,8.30910969 26.8255713,8.29944972 26.8217073,8.28592576 C26.7636119,8.28012978 26.7422922,8.28209567 26.6735538,8.26264015 C26.678333,8.25881005 26.7694079,8.23945622 26.8158774,8.24423536 C27.1781433,8.28978975 27.2100381,8.49803838 27.5750833,8.55128685 C27.6564982,8.55894703 27.6592776,8.51447728 27.6554475,8.47566792 C27.793941,8.49024261 27.8085157,8.46997362 27.8065159,8.46031365 C27.8026858,8.4448238 27.7988218,8.43502825 27.7988218,8.41953841 C27.8743051,8.43119816 27.9566691,8.4340792 27.9818189,8.40801423 C28.262636,8.51261307 28.5406736,8.62304179 28.8116951,8.74696057 C28.8253547,8.75662054 28.8446746,8.76828029 28.8718242,8.77502533 C29.0190286,8.84372975 29.1652162,8.9135188 29.3095395,8.98713794 C29.26307,8.96964831 29.2175156,8.95124353 29.1661313,8.94053282 C29.1120016,8.92504298 29.1149165,8.92412782 29.0547875,8.915383 C29.094512,8.98317227 29.4083085,9.07716209 29.6290303,9.14586652 C29.6630267,9.16522035 29.6929556,9.18654008 29.7268503,9.20586002 C29.6882104,9.24649968 29.635911,9.26198953 29.6184213,9.32686386 C29.5273464,9.28530904 29.5293123,9.28913913 29.4469823,9.29296923 C29.4489482,9.29296923 29.448033,9.29683321 29.448033,9.29683321 C29.3288595,9.31815294 29.3114037,9.36275828 29.2350052,9.40143205 C29.2388353,9.42763261 29.2426654,9.44312245 29.2503595,9.46722154 C29.2920499,9.46535733 29.3308592,9.47701709 29.3773288,9.49342209 C29.365669,9.53118071 29.3240803,9.51952096 29.3317744,9.55341559 C29.3472643,9.63191557 29.5283972,9.69773894 29.5786968,9.76457916 C29.6047957,9.7946437 29.6386903,9.86243297 29.6648909,9.87595693 C29.7830137,9.93022224 29.7868438,9.85660309 29.8983232,9.93405233 C29.8498539,9.94466135 29.8082991,9.93113739 29.817959,9.9708619 C29.8362282,10.0658008 30.0900313,10.3039784 30.2314397,10.3794617 C30.2469295,10.3930874 30.2527594,10.426982 30.289569,10.4512167 C30.401828,10.5015502 30.4464672,10.5006011 30.5102908,10.5828295 C30.580995,10.5983194 30.669155,10.5809653 30.7524341,10.6003192 C30.9025873,10.6420095 30.9228224,10.7677925 31.0671458,10.8095168 C31.1050061,10.8114827 31.1088701,10.799823 31.1766593,10.8162619 C31.1863193,10.8384967 31.2134689,10.8501565 31.2531934,10.8656463 C31.4042618,10.899541 31.296748,10.7320337 31.4168367,10.7300678 C31.395517,10.6952241 31.385857,10.6139448 31.3721975,10.5654755 C31.3508777,10.4871111 31.5185206,10.5112102 31.5649901,10.4676556 C33.2984973,11.912516 34.6194729,13.8319352 35.3380052,16.0225115 C35.3321753,16.0292904 35.3234305,16.0321715 35.3185497,16.0389504 C35.1355865,16.3788119 34.9961439,16.7652785 34.8924941,17.2011635 C34.8498547,17.362807 34.6096773,17.4876749 34.6164224,17.7230731 C34.6891263,18.1675334 34.9418786,18.5297993 34.9447936,19.0342531 C34.9524538,19.3190358 34.7433917,19.8526052 34.4828436,19.9891327 C34.5458537,20.1470817 34.7433917,20.3599739 34.7569156,20.5197871 C34.7501367,20.6157767 34.788946,20.7067499 34.7917254,20.8791041 C34.7694905,20.8780534 34.7840313,20.8800532 34.7607457,20.8800532 C34.8323651,20.9556382 34.8305348,20.964383 34.8943245,21.0311216 C34.8963242,21.073761 35.3901691,21.5686566 35.4676183,21.6229558 C35.6031968,21.7556194 35.6613261,21.9125176 35.7232855,22.0858209 C34.8605654,26.5888925 31.5079116,30.2088733 27.1559084,31.4639238 M22.6256872,7.7095814 C22.6091127,7.73951037 22.5859627,7.77157469 22.5258336,7.81021457 C22.3476156,7.92555801 22.1956321,7.82570442 22.1927171,7.78123466 C22.1927171,7.77157469 22.208207,7.77157469 22.214952,7.76574481 C22.3525303,7.74734003 22.4871937,7.72310536 22.6256872,7.7095814 M23.7983398,31.9462444 C17.0997772,31.9462444 11.6505708,26.4969024 11.6505708,19.7983398 C11.6505708,17.0160649 12.6005358,14.4566133 14.1800935,12.4063947 C14.1141345,12.6543679 13.9796406,13.1056071 14.0144504,13.2402366 C14.0618351,13.408659 14.0357701,13.4959038 14.0938994,13.6430065 C14.058005,13.6710713 13.9805558,13.7233707 14.0124506,13.7824152 C14.1123042,13.979987 14.2323929,14.2667695 14.3854272,14.2822593 C14.325332,14.5814812 14.4822302,14.4643074 14.5762201,14.7141448 C14.5868291,14.7635292 14.5635096,14.8448086 14.6226896,14.8690432 C14.880221,14.9475432 15.2386229,15.0782409 15.3548815,15.2990984 C15.3509158,15.2970986 15.3432217,15.2990984 15.3393916,15.2990984 C15.3393916,15.3125884 15.3373919,15.3377382 15.3364767,15.3513978 C15.3858612,15.5266669 15.4458208,15.5633409 15.5106951,15.6941742 C15.5504196,15.7841984 15.5427594,15.9904811 15.6289535,16.0466106 C15.7577531,16.1280594 15.8826209,16.2820427 15.9950155,16.4436862 C16.0599238,16.5386251 15.8691309,16.5153056 15.8361514,16.5153056 C15.9156004,16.6297 16.0889037,16.6025843 16.1935025,16.7051833 C16.2758665,16.7806328 16.3349109,16.8620816 16.4201559,16.9462759 C16.41819,16.9976601 16.4161903,17.0818544 16.4152751,17.1487285 C16.4298498,17.1806234 16.4424247,17.188453 16.4947241,17.2165178 C16.5847483,17.2746471 16.6516224,17.4488655 16.8036059,17.4517804 C16.8054701,17.4760151 16.9216948,17.6154237 16.9353544,17.6163728 C16.9546743,17.6134578 16.9904332,17.5272638 16.9943988,17.4973348 C16.992399,17.4498146 16.9003751,17.303627 16.8325858,17.3665354 C16.6833817,17.2715966 16.6408778,17.0760245 16.5827485,16.8872314 C16.5207891,16.7225374 16.3774148,16.6489183 16.3203362,16.4688361 C16.2824759,16.3380367 16.269901,16.2635024 16.163438,16.1589035 C16.0840229,16.0814543 15.986169,16.0901652 15.9320054,15.9768555 C15.8757403,15.851852 15.8060869,15.7579978 15.8079511,15.5972356 C15.8090018,15.5788308 15.8099508,15.5227013 15.8283556,15.4974159 C15.9203457,15.5885246 16.0462642,15.5759497 16.1818428,15.6320792 C16.2330915,15.6581442 16.2205165,15.8237873 16.2912208,15.8935763 C16.3531801,15.9593658 16.3299962,16.0872503 16.4016495,16.1589035 C16.4878435,16.2421826 16.5595985,16.3177677 16.6671122,16.4194516 C16.6844324,16.3999961 16.6835172,16.4049108 16.7560857,16.4165366 C16.7551366,16.6062788 16.9933481,16.6121087 17.0737123,16.7506022 C17.1086576,16.8367962 17.0485625,16.9104154 17.1183176,16.9762048 C17.1919368,17.0478242 17.3264646,17.0808037 17.4127942,17.1591681 C17.5890124,17.3316918 17.7758396,17.5843085 17.8756593,17.8749549 C17.8862344,17.9175605 17.9560235,17.9514551 17.9578877,18.0579182 C17.9647683,18.1479423 17.8765745,18.1925816 17.8718292,18.2816906 C17.8756593,18.3349051 17.926908,18.4404191 17.9976122,18.4404191 C18.0393026,18.5460687 18.2842591,18.6011475 18.3879089,18.694256 C18.4112284,18.7096103 18.4586131,18.7348957 18.4819326,18.7503856 C18.5912767,18.798821 18.6484909,18.7813652 18.7656646,18.8298346 C18.8740935,18.88793 18.912869,18.980903 19.031907,19.0147976 C19.1355906,19.0408626 19.1898559,18.9925288 19.2846592,19.0302874 C19.3834282,19.073842 19.6614659,19.2597202 19.7728436,19.2655501 C19.8251092,19.2644994 19.9093373,19.2491451 19.9742117,19.2810399 C20.0013613,19.2925641 20.0807764,19.3526593 20.1504299,19.3536084 C20.302549,19.3517441 20.3267837,19.195761 20.4855461,19.1919309 C20.5378455,19.1919309 20.6027199,19.21603 20.6803047,19.2568053 C20.6937947,19.2577543 20.7209443,19.2568053 20.7335193,19.2568053 C20.9736966,19.3681492 21.0375202,19.6974355 21.3184728,19.826269 C21.498555,19.9084974 21.6157288,19.8698236 21.7909979,19.9405278 C21.9052906,19.9917765 21.9953148,20.0712255 22.164788,20.0790213 C22.2103424,20.0770215 22.270302,20.0422117 22.3342611,20.0383816 C22.346836,20.0422117 22.3749008,20.040212 22.3874757,20.0383816 C22.4446899,20.2359196 22.5899284,20.3017091 22.736082,20.4363724 C22.7681463,20.4663014 22.825191,20.499247 22.8514255,20.5738152 C22.8958952,20.7016996 22.8067862,20.8062985 22.9405344,20.8895776 C22.9618203,20.8846968 23.0073747,20.8904927 23.0296095,20.8885268 C23.0159839,20.8779178 23.0170346,20.8352784 23.0296095,20.8169075 C23.0363885,20.8158229 23.3346613,20.9825167 23.3675052,21.0337654 C23.392655,21.0822347 23.3984848,21.173174 23.5273184,21.2032385 C23.5244034,21.2148983 23.558298,21.252623 23.570873,21.2507588 C23.6164273,21.2507588 23.7704107,21.2023234 23.8372848,21.2584529 C23.907989,21.3262422 23.9941491,21.4723958 24.1365066,21.4743956 C24.188806,21.4773105 24.2516806,21.4337559 24.2700854,21.3523071 C24.2575104,21.3455621 24.2022961,21.3040073 24.1993812,21.2797726 C24.2061262,21.245878 24.4433886,21.0724391 24.5102627,21.0705749 C24.6032018,21.0705749 24.5450725,21.2515723 24.6449261,21.2981774 C24.6314022,21.3213274 24.5935418,21.3552221 24.5906269,21.3785416 C24.5916776,21.3969464 24.6759058,21.4288412 24.6893959,21.440501 C24.6952258,21.4414161 24.7048857,21.4328069 24.7107156,21.4317561 C24.7068855,21.4443311 24.6972255,21.4694809 24.6961409,21.4831404 C24.6981407,21.6283789 24.8462941,21.5953994 24.8512089,21.7687366 C24.8492091,21.8481517 24.8085694,21.880216 24.8056545,21.9760701 C24.8094846,22.0234548 24.8550389,22.084499 24.8559541,22.1504241 C24.8550389,22.160084 24.8559541,22.180353 24.8559541,22.190013 C24.8473449,22.2065875 24.8269742,22.2375672 24.8202292,22.2539722 C24.8202292,22.2714618 24.8725286,22.3237612 24.9064232,22.3324721 C24.8462941,22.5473641 24.6303514,22.4893704 24.5266677,22.6685035 C24.4570482,22.7982861 24.3950888,23.0016539 24.1549114,23.0103648 C24.1868062,23.3628351 24.0628875,23.5080736 24.0589218,23.6862916 C24.0570576,23.7986862 24.0696325,23.9410098 24.1945003,23.9468397 C24.2400208,23.9448738 24.2458507,23.9071152 24.3252997,23.9526695 C24.2836093,24.0707923 24.1345068,24.1056021 24.0521429,24.2247418 C24.0260779,24.2470105 23.9562888,24.3603203 23.9533739,24.4542084 C23.9524587,24.5839571 24.0716323,24.7408554 24.1645714,24.8203044 C24.191721,24.8416241 24.2642555,24.8328793 24.2934049,24.8784337 C24.3118097,24.9190733 24.3340445,25.0295021 24.393089,25.0847164 C24.4164085,25.0963423 24.4763681,25.0895972 24.5035177,25.1341009 C24.5742219,25.2735095 24.6245215,25.3645844 24.6826508,25.5350066 C24.7378652,25.68899 24.7814198,25.8526332 24.8444299,26.0221064 C24.8821886,26.1305353 24.9984133,26.1760897 24.9964474,26.2874336 C24.9964474,26.3794575 24.9587226,26.4512125 25.0225123,26.5053761 C25.1726656,26.6351248 25.2772644,26.7194546 25.5116119,26.7708389 C25.6240065,26.7978529 25.6703744,26.8133427 25.7691433,26.8976726 C25.8563881,26.9645467 25.9473613,26.9547173 26.066501,26.9906117 C26.2185184,27.0574858 26.3279981,27.1340199 26.3967025,27.2936636 C26.4121923,27.3692825 26.4305971,27.7508683 26.4247672,27.8146919 C26.4151073,27.9134609 26.3336924,28.0898147 26.3259983,28.1827537 C26.3152876,28.270812 26.3114575,28.3571077 26.3046785,28.4577409 C26.2804778,28.5187851 26.2349234,28.6340947 26.2320085,28.6756834 C26.2330592,28.693173 26.2290935,28.712493 26.2281784,28.7308978 C26.2059096,28.9351807 26.0781607,29.0640142 26.0567054,29.2906676 C26.0519263,29.3836406 25.9570213,29.4707498 25.9938309,29.567519 C25.9821711,29.7128931 25.9754261,29.8484716 25.9608514,29.9820843 C25.9018069,30.1118329 25.889232,30.2009419 25.8272726,30.3286908 C25.8137487,30.3490954 25.7788033,30.3520103 25.7556194,30.3704151 C25.7188098,30.4081398 25.6916941,30.4779289 25.6568504,30.5214835 C25.5823161,30.5931028 25.4670066,30.7181063 25.4525675,30.834331 C25.4429075,30.8740555 25.4456868,30.9998385 25.4718874,31.0007875 C25.4718874,31.0007875 25.5077818,31.013498 25.5096121,31.0492229 C25.5028671,31.0647128 25.4815474,31.0783723 25.4332475,31.0841683 C25.3973531,31.1722266 25.3430539,31.2099513 25.3353937,31.2981451 C25.3324788,31.3571896 25.3024142,31.4637882 25.3643736,31.4637882 C25.4088773,31.4541282 25.4234181,31.4269786 25.4806322,31.4056589 C25.4999521,31.4007442 25.5271018,31.4046082 25.5464217,31.399829 C25.5455065,31.4298936 25.5425916,31.4375538 25.5377108,31.4667031 C25.4544317,31.594452 25.3731184,31.7194554 25.2917035,31.8442894 C24.8016888,31.9054692 24.3048951,31.9462444 23.7983398,31.9462444 M23.7983398,5.99902344 C16.189127,5.99902344 9.99902344,12.189127 9.99902344,19.7983398 C9.99902344,27.4075526 16.189127,33.5976563 23.7983398,33.5976563 C31.4075526,33.5976563 37.5976563,27.4075526 37.5976563,19.7983398 C37.5976563,12.189127 31.4075526,5.99902344 23.7983398,5.99902344" id="liulianq" fill="#FFFFFF"></path>
            </g>
        </g>
    </g>
</svg>