<?xml version="1.0" encoding="UTF-8"?>
<svg width="46px" height="46px" viewBox="0 0 46 46" version="1.1" xmlns="http://www.w3.org/2000/svg" xmlns:xlink="http://www.w3.org/1999/xlink">
    <!-- Generator: Sketch 45.1 (43504) - http://www.bohemiancoding.com/sketch -->
    <title>pengyouq_slice</title>
    <desc>Created with Sketch.</desc>
    <defs></defs>
    <g id="Page-8" stroke="none" stroke-width="1" fill="none" fill-rule="evenodd">
        <g id="Artboard" transform="translate(-631.000000, -393.000000)">
            <g id="pengyouq" transform="translate(631.000000, 393.000000)">
                <rect id="Rectangle-3-Copy-2" stroke="#FFFFFF" x="0.5" y="0.5" width="44.2395589" height="44.2395589" rx="6"></rect>
                <path d="M27.9537102,19.1771529 L18.4052203,9.73041136 C23.5478082,7.92833003 27.9537102,10.2649705 27.9537102,10.2649705 L27.9537102,19.1771529 Z M28.7887455,24.4190066 L28.7887455,10.6332538 C28.7887455,10.6332538 33.9975144,12.9699292 35.465543,18.644413 L28.7887455,24.4190066 Z M25.9867963,28.4254592 L35.6014322,19.4775208 C35.6014322,19.4775208 37.3037307,22.2146354 34.7664003,28.4254592 L25.9867963,28.4254592 Z M21.0766587,29.5607121 L34.0636569,29.5607121 C34.0636569,29.5607121 32.4955013,33.7673843 26.8844084,35.5015502 L21.0766587,29.5607121 Z M16.8370646,26.7216719 L25.9867928,35.8019145 C20.2094269,37.2375318 16.8370646,35.0992952 16.8370646,35.0992952 L16.8370646,26.7216719 Z M9.32342621,27.1561213 L15.9018778,21.3135773 L15.9018778,34.5987112 C15.9018778,34.5987112 11.9287187,33.2328601 9.32342621,27.1561213 Z M9.15713228,26.221088 C9.15713228,26.221088 7.65334151,21.4155028 9.75792916,17.2427709 L18.8057492,17.2427709 L9.15713228,26.221088 Z M10.3265541,16.3059533 C10.3265541,16.3059533 12.2291066,12.0348924 17.4038945,10.0307757 L23.5800221,16.3059533 L10.3265541,16.3059533 Z" id="Combined-Shape" fill="#FFFFFF"></path>
            </g>
        </g>
    </g>
</svg>