<?xml version="1.0" encoding="UTF-8"?>
<svg width="32px" height="26px" viewBox="0 0 32 26" version="1.1" xmlns="http://www.w3.org/2000/svg" xmlns:xlink="http://www.w3.org/1999/xlink">
    <!-- Generator: Sketch 39.1 (31720) - http://www.bohemiancoding.com/sketch -->
    <title>bankcard4_slice</title>
    <desc>Created with Sketch.</desc>
    <defs></defs>
    <g id="个人中心&amp;余额" stroke="none" stroke-width="1" fill="none" fill-rule="evenodd">
        <g id="Artboard" transform="translate(-38.000000, -492.000000)">
            <g id="Bankcard4" transform="translate(38.000000, 492.000000)">
                <path d="M28.4754459,24.3748209 L3.52478175,24.3748209 C2.46362781,24.3748209 1.60002913,23.4977401 1.60002913,22.4200198 L1.60002913,8.98749862 L30.4001985,8.98749862 L30.4001985,22.4200198 C30.4001985,23.4977401 29.5365998,24.3748209 28.4754459,24.3748209 M3.52478175,1.62517914 L28.4754459,1.62517914 C29.5365998,1.62517914 30.4001985,2.50168669 30.4001985,3.57998016 L30.4001985,7.36289274 L1.60002913,7.36289274 L1.60002913,3.57998016 C1.60002913,2.50168669 2.46362781,1.62517914 3.52478175,1.62517914 M28.4754459,0 L3.52478175,0 C1.57801583,0 -0.000168421052,1.60282218 -0.000168421052,3.57998016 L-0.000168421052,22.4200198 C-0.000168421052,24.3971778 1.57801583,26 3.52478175,26 L28.4754459,26 C30.4222118,26 31.9998316,24.3971778 31.9998316,22.4200198 L31.9998316,3.57998016 C31.9998316,1.60282218 30.4222118,0 28.4754459,0" id="Fill-1" fill="#070101"></path>
                <path d="M14.1100912,18.8114246 L5.4493193,18.8114246 C5.00974035,18.8114246 4.65324912,19.1673544 4.65324912,19.6069333 C4.65324912,20.0465123 5.00974035,20.4024421 5.4493193,20.4024421 L14.1100912,20.4024421 C14.5496702,20.4024421 14.9056,20.0465123 14.9056,19.6069333 C14.9056,19.1673544 14.5496702,18.8114246 14.1100912,18.8114246" id="Fill-4" fill="#FF6468"></path>
                <path d="M14.1100912,13.8382877 L5.4493193,13.8382877 C5.00974035,13.8382877 4.65324912,14.1942175 4.65324912,14.6337965 C4.65324912,15.0733754 5.00974035,15.4293053 5.4493193,15.4293053 L14.1100912,15.4293053 C14.5496702,15.4293053 14.9056,15.0733754 14.9056,14.6337965 C14.9056,14.1942175 14.5496702,13.8382877 14.1100912,13.8382877" id="Fill-6" fill="#070101"></path>
                <path d="M20.9521965,13.8382877 L17.3204772,13.8382877 C16.8814596,13.8382877 16.5249684,14.1942175 16.5249684,14.6337965 C16.5249684,15.0733754 16.8814596,15.4293053 17.3204772,15.4293053 L20.9521965,15.4293053 C21.3917754,15.4293053 21.7477053,15.0733754 21.7477053,14.6337965 C21.7477053,14.1942175 21.3917754,13.8382877 20.9521965,13.8382877" id="Fill-8" fill="#070101"></path>
            </g>
        </g>
    </g>
</svg>