<?xml version="1.0" encoding="UTF-8"?>
<svg width="28px" height="32px" viewBox="0 0 28 32" version="1.1" xmlns="http://www.w3.org/2000/svg" xmlns:xlink="http://www.w3.org/1999/xlink">
    <!-- Generator: Sketch 39.1 (31720) - http://www.bohemiancoding.com/sketch -->
    <title>security5_slice</title>
    <desc>Created with Sketch.</desc>
    <defs></defs>
    <g id="个人中心&amp;余额" stroke="none" stroke-width="1" fill="none" fill-rule="evenodd">
        <g id="Artboard" transform="translate(-40.000000, -602.000000)">
            <g id="security5" transform="translate(40.000000, 602.000000)">
                <path d="M13.2644571,31.8275368 C13.0147429,31.8275368 12.7741714,31.6995368 12.5187429,31.5642386 C12.4381714,31.5210105 12.3547429,31.4772211 12.2701714,31.4362386 C9.99245714,30.2707649 7.94445714,28.9233965 6.18331429,27.4323088 C5.11645714,26.5217123 4.24845714,25.6560281 3.53074286,24.7858526 C2.57531429,23.5541333 1.59245714,22.2230456 0.982742857,20.6932211 C0.951885714,20.6118175 0.918742857,20.5259228 0.8856,20.4400281 C0.656457143,19.8460632 0.419314286,19.2324491 0.362742857,18.5969404 L0.362171429,18.5885193 C0.124457143,16.5523088 0.0838857143,14.4582737 0.0444571429,12.4327298 C0.0364571429,12.0116772 0.0284571429,11.5906246 0.0181714286,11.1695719 C0.0130285714,10.9197474 0.0141714286,10.663186 0.0153142857,10.4150456 C0.0170285714,10.0826947 0.0187428571,9.73911579 0.00445714286,9.39778246 C-0.00468571429,8.53546667 0.00217142857,7.65799298 0.00845714286,6.80915088 C0.0124571429,6.28087018 0.0164571429,5.73462456 0.0164571429,5.1968 C0.0478857143,4.63258947 0.264457143,4.13237895 0.610742857,3.82360702 C0.659314286,3.78318596 0.7056,3.74164211 0.750171429,3.70122105 C0.872457143,3.59062456 0.987885714,3.48676491 1.11417143,3.43230877 L1.1256,3.42781754 L1.13645714,3.42164211 C1.50674286,3.21504561 1.89531429,3.02529123 2.27131429,2.84227368 C2.49474286,2.7328 2.72674286,2.61995789 2.9536,2.50318596 C5.18274286,1.43932632 7.59931429,0.829080702 9.67131429,0.372659649 C10.9090286,0.203115789 12.1216,0.047045614 13.3433143,0.00101052632 C13.4284571,0.000449122807 13.5130286,-0.000112280702 13.5981714,-0.000112280702 C16.0970286,-0.000112280702 18.4278857,0.314835088 20.5261714,0.936308772 C21.1856,1.12157193 21.8410286,1.3730807 22.4747429,1.61560702 C22.7667429,1.72732632 23.0684571,1.84297544 23.3678857,1.95132632 C24.3564571,2.29041404 25.3170286,2.77771228 26.2461714,3.24872982 L26.2484571,3.24985263 C26.3364571,3.30374737 26.4261714,3.35371228 26.5130286,3.40199298 C26.7501714,3.53448421 26.9747429,3.65967719 27.1501714,3.84494035 C27.4878857,4.1890807 27.7330286,4.67413333 27.8450286,5.21532632 C27.8513143,6.68171228 27.8501714,8.1728 27.8496,9.61448421 C27.8490286,10.7097825 27.8484571,11.8421333 27.8507429,12.9565193 L27.8507429,12.9683088 C27.8627429,13.2535018 27.8198857,13.4859228 27.7221714,13.6599579 L27.7170286,13.6700632 C27.5570286,13.9850105 27.2330286,14.1888 26.8918857,14.1888 C26.8718857,14.1888 26.8518857,14.1882386 26.8318857,14.1865544 L26.8233143,14.185993 L26.8153143,14.185993 C26.5793143,14.1854316 26.3404571,14.0675368 26.1604571,13.8626246 C25.9878857,13.6655719 25.8924571,13.4106947 25.8981714,13.1631158 L25.8981714,13.1563789 C25.9004571,12.0908351 25.8993143,11.0073263 25.8987429,9.95974737 C25.8981714,8.47539649 25.8970286,6.9405193 25.9033143,5.43090526 L25.9044571,5.26865965 L25.7764571,5.19006316 C25.4901714,5.01490526 25.1907429,4.87455439 24.9010286,4.73869474 C24.6964571,4.64269474 24.4844571,4.54332632 24.2844571,4.43441404 L24.2736,4.4282386 L24.2616,4.42318596 C21.9187429,3.45644912 19.7947429,2.62837895 17.5296,2.28760702 C16.2513143,2.08943158 15.0861714,1.99287018 13.9696,1.99287018 C13.6530286,1.99287018 13.3376,2.00072982 13.0313143,2.01701053 C12.3301714,2.05518596 11.6273143,2.14894035 10.9467429,2.23932632 L10.7616,2.26402807 C10.2964571,2.30837895 9.83988571,2.41448421 9.39817143,2.51665965 C9.33245714,2.53237895 9.26674286,2.54753684 9.20045714,2.56269474 C7.52331429,2.96297544 5.55931429,3.49518596 3.69302857,4.40971228 L3.68674286,4.4130807 L3.67988571,4.41701053 C3.3656,4.59665965 3.03188571,4.75609825 2.70902857,4.91048421 C2.54731429,4.98795789 2.37988571,5.06767719 2.21588571,5.15020351 L2.0736,5.22094035 L2.07074286,5.39385263 C2.0176,8.4130807 2.0616,11.3817825 2.11188571,13.8873263 L2.11245714,13.8929404 C2.12331429,14.1742035 2.13302857,14.4560281 2.14274286,14.7378526 C2.18102857,15.8668351 2.22102857,17.0351158 2.35702857,18.1815018 C2.3896,18.5335018 2.50102857,18.8501333 2.60902857,19.1566596 C2.63702857,19.2358175 2.66502857,19.3155368 2.69131429,19.3952561 C3.18674286,20.8840982 4.09874286,22.1107649 5.06902857,23.3396772 L5.07417143,23.346414 C6.43302857,24.9615719 8.16445714,26.4346947 10.3673143,27.8494316 C11.2387429,28.4203789 12.1924571,28.9643789 13.4576,29.6116772 L13.4753143,29.6206596 L13.4936,29.6262737 C13.5941714,29.6577123 13.7027429,29.6723088 13.8364571,29.6723088 C13.8993143,29.6723088 13.9610286,29.6695018 14.0204571,29.6661333 C14.0684571,29.6638877 14.1158857,29.6616421 14.1627429,29.6610807 L14.2078857,29.6605193 L14.2501714,29.641993 C16.0873143,28.8459228 17.9364571,27.7175018 20.0696,26.0916772 C20.4553143,25.8014316 20.8924571,25.4724491 21.2581714,25.0592561 C21.5313143,24.8363789 21.7690286,24.5753263 21.9993143,24.3221333 C22.1770286,24.1273263 22.3444571,23.9426246 22.5273143,23.7742035 L22.5370286,23.7657825 L22.5450286,23.7562386 C23.9284571,22.2062035 24.8941714,20.5073965 25.4136,18.7058526 C25.5301714,18.2982737 25.9170286,18.0029754 26.3341714,18.0029754 C26.4176,18.0029754 26.4993143,18.0147649 26.5770286,18.0389053 L26.5861714,18.0417123 C26.9496,18.1382737 27.2427429,18.503186 27.2833143,18.9090807 L27.2838857,18.9158175 L27.2850286,18.921993 C27.3238857,19.1931509 27.2267429,19.471607 27.1244571,19.7669053 C27.1004571,19.8353965 27.0770286,19.9050105 27.0541714,19.9740632 C26.4301714,21.7890807 25.4164571,23.5086596 24.0416,25.0850807 C23.7056,25.4230456 23.3730286,25.7744842 23.0513143,26.1146947 C22.9376,26.2353965 22.8233143,26.3555368 22.7090286,26.4756772 C22.5530286,26.5952561 22.4147429,26.7311158 22.2804571,26.8630456 C22.1878857,26.953993 22.1004571,27.0398877 22.0090286,27.119607 C21.4604571,27.570414 20.8953143,28.0346947 20.3158857,28.4456421 L20.3118857,28.4490105 C19.9701714,28.7027649 19.6090286,28.9419228 19.2593143,29.1737825 C18.9570286,29.3742035 18.6438857,29.5813614 18.3416,29.799186 C18.2376,29.8609404 18.1336,29.9232561 18.0296,29.9850105 C17.1318857,30.5205895 16.2033143,31.0746947 15.2467429,31.4996772 C15.1507429,31.538414 15.0581714,31.5833263 14.9684571,31.625993 C14.7547429,31.7292912 14.5530286,31.826414 14.3484571,31.8275368 L13.9924571,31.8275368 L13.2644571,31.8275368 Z" id="Fill-1" fill="#070101"></path>
                <path d="M12.9487429,21.1925333 C12.7858857,21.1925333 12.6264571,21.1532351 12.4876,21.0785684 C12.3516,21.0072702 12.2378857,20.8781474 12.1178857,20.7417263 C12.0464571,20.6608842 11.9733143,20.5772351 11.8904571,20.4997614 C11.3824571,19.9445333 10.8738857,19.3893053 10.3658857,18.8340772 C9.20645714,17.5675509 8.0076,16.2572351 6.82474286,14.9727439 L6.8196,14.9665684 L6.81388571,14.9609544 C6.5836,14.7403228 6.45388571,14.4646737 6.45731429,14.2047439 L6.45731429,14.192393 L6.45617143,14.1794807 C6.42188571,13.6837614 6.76645714,13.1852351 7.20931429,13.0914807 L7.22017143,13.0886737 C7.28474286,13.0718316 7.3516,13.0634105 7.41902857,13.0634105 C7.66645714,13.0634105 7.92188571,13.176814 8.10302857,13.3676912 C8.68531429,14.0065684 9.2676,14.646007 9.84931429,15.2854456 C10.7996,16.3290947 11.7818857,17.4081123 12.7498857,18.4674807 L12.9224571,18.6566737 L13.0956,18.4686035 C14.6670286,16.7619368 16.2596,15.0221474 17.8001714,13.3390596 C19.2087429,11.800814 20.6658857,10.2092351 22.1013143,8.64853333 C22.2744571,8.45821754 22.5190286,8.35435789 22.7898857,8.35435789 C23.1418857,8.35435789 23.4744571,8.53288421 23.6573143,8.82032281 C23.9058857,9.19927018 23.8556,9.78593684 23.5476,10.1312 C22.0201714,11.7918316 20.4933143,13.4524632 18.9676,15.1142175 C17.2401714,16.9943579 15.4538857,18.9384982 13.6950286,20.8489544 L13.6870286,20.8579368 C13.5087429,21.0707088 13.2396,21.1925333 12.9487429,21.1925333 L12.9487429,21.1925333 Z" id="Fill-4" fill="#FF6468"></path>
            </g>
        </g>
    </g>
</svg>